# xmcd
#
# Track frame offsets:
#	150
#	14249
#	28528
#	42263
#	55734
#	70359
#	83177
#	96765
#	110295
#	122277
#	137004
#	150379
#	163572
#	176167
#	188320
#	200243
#	213497
#	225218
#	238780
#	253392
#	267067
#	279198
#	293301
#
# Disc length: 4103 seconds
#
# Revision: 0
# Processed by: cddbd v1.5.2PL0 Copyright (c) Steve Scherf et al.
# Submitted via: audiograbber 1.83.01
#
DISCID=36100517
DTITLE=John Lee Hooker - Singles Vol. 1  cd1
DYEAR=2015
DGENRE=Blues
TTITLE0=Sally Mae
TTITLE1=Boogie Chillen'
TTITLE2=Hobo Blues
TTITLE3=Hoogie Boogie
TTITLE4=Whistlin' and Moanin' Blues
TTITLE5=Weeping Willow Boogie
TTITLE6=Crawlin' King Snake
TTITLE7=Driftin' From Door to Door
TTITLE8=Howlin' Wolf
TTITLE9=Playin' The Races
TTITLE10=Wednesday Evening
TTITLE11=No Friend Around
TTITLE12=Give Me Your Phone Number
TTITLE13=Roll n' Roll
TTITLE14=Let Your Daddy Ride
TTITLE15=One More Time
TTITLE16=Queen Bee
TTITLE17=John L's House Rent Boogie
TTITLE18=Four Women in My Life
TTITLE19=Tease Me Baby
TTITLE20=How Can You Do It
TTITLE21=I'm In The Mood
TTITLE22=Anybody Seen My Baby
EXTD=
EXTT0=
EXTT1=
EXTT2=
EXTT3=
EXTT4=
EXTT5=
EXTT6=
EXTT7=
EXTT8=
EXTT9=
EXTT10=
EXTT11=
EXTT12=
EXTT13=
EXTT14=
EXTT15=
EXTT16=
EXTT17=
EXTT18=
EXTT19=
EXTT20=
EXTT21=
EXTT22=
PLAYORDER=
